<svg width="364" height="72" viewBox="0 0 364 72" fill="none" xmlns="http://www.w3.org/2000/svg">
<g clip-path="url(#clip0_220_105)">
<path d="M30.4 28.8C29.5168 28.8 28.8 29.5168 28.8 30.4V52.8L23.0304 64.3376C22.44 65.5168 20.7584 65.5168 20.168 64.3376L14.8416 53.6848C14.5712 53.1424 14.016 52.8 13.4112 52.8H1.6C0.7168 52.8 0 53.5168 0 54.4V61.7376C0 62.1616 0.168 62.5696 0.4688 62.8688L9.1312 71.5312C9.432 71.832 9.8384 72 10.2624 72H32.9376C33.3616 72 33.7696 71.832 34.0688 71.5312L42.7312 62.8688C43.032 62.568 43.2 62.1616 43.2 61.7376V39.0624C43.2 38.6384 43.032 38.2304 42.7312 37.9312L34.0688 29.2688C33.768 28.968 33.3616 28.8 32.9376 28.8H30.4Z" fill="#FF4A4E"/>
<path d="M32.9376 0H10.2624C9.8384 0 9.4304 0.168 9.1312 0.4688L0.4688 9.1312C0.168 9.432 0 9.8384 0 10.2624V32.9376C0 33.3616 0.168 33.7696 0.4688 34.0688L9.1312 42.7312C9.432 43.032 9.8384 43.2 10.2624 43.2H12.8C13.6832 43.2 14.4 42.4832 14.4 41.6V14.4C14.4 13.5584 14.544 12.7504 14.8112 12C15.7984 9.2032 18.4656 7.2 21.6 7.2C24.7344 7.2 27.4016 9.2032 28.3888 12C28.656 12.7504 28.8 13.5584 28.8 14.4V17.6C28.8 18.4832 29.5168 19.2 30.4 19.2H41.6C42.4832 19.2 43.2 18.4832 43.2 17.6V10.2624C43.2 9.8384 43.032 9.4304 42.7312 9.1312L34.0688 0.4688C33.768 0.168 33.3616 0 32.9376 0Z" fill="#FF4A4E"/>
</g>
<path d="M88.8594 42.0625C88.8594 41.6562 88.7865 41.276 88.6406 40.9219C88.5052 40.5677 88.2708 40.2344 87.9375 39.9219C87.5938 39.6198 87.1458 39.3438 86.5938 39.0938C86.0521 38.8333 85.375 38.5938 84.5625 38.375C83.3021 38.0312 82.1927 37.6146 81.2344 37.125C80.2865 36.6354 79.5104 36.099 78.9062 35.5156C78.3021 34.9323 77.8438 34.2865 77.5312 33.5781C77.2292 32.8698 77.0781 32.099 77.0781 31.2656C77.0781 30.3073 77.2812 29.4375 77.6875 28.6562C78.0938 27.875 78.6562 27.2083 79.375 26.6562C80.0938 26.1042 80.9427 25.6823 81.9219 25.3906C82.901 25.0885 83.9635 24.9375 85.1094 24.9375C86.2969 24.9375 87.3802 25.1094 88.3594 25.4531C89.349 25.7969 90.1979 26.276 90.9062 26.8906C91.6146 27.5156 92.1667 28.2552 92.5625 29.1094C92.9583 29.9635 93.1562 30.901 93.1562 31.9219H88.875C88.8542 31.4115 88.7604 30.9427 88.5938 30.5156C88.4375 30.0885 88.2031 29.7188 87.8906 29.4062C87.5677 29.1042 87.1667 28.8698 86.6875 28.7031C86.2188 28.526 85.6667 28.4375 85.0312 28.4375C84.4479 28.4375 83.9271 28.5104 83.4688 28.6562C83.0208 28.7917 82.6406 28.9844 82.3281 29.2344C82.0156 29.4948 81.776 29.8021 81.6094 30.1562C81.4531 30.5 81.375 30.875 81.375 31.2812C81.375 31.7083 81.4792 32.0938 81.6875 32.4375C81.9062 32.7812 82.2188 33.0885 82.625 33.3594C83.0312 33.6406 83.5208 33.8958 84.0938 34.125C84.6771 34.3542 85.3333 34.5677 86.0625 34.7656C86.8438 34.9844 87.5885 35.25 88.2969 35.5625C89.0052 35.875 89.6562 36.2344 90.25 36.6406C91.1458 37.3073 91.8594 38.0833 92.3906 38.9688C92.9219 39.8542 93.1875 40.875 93.1875 42.0312C93.1875 43.0312 92.9844 43.9219 92.5781 44.7031C92.1823 45.474 91.6302 46.125 90.9219 46.6562C90.2135 47.1979 89.3698 47.6094 88.3906 47.8906C87.4115 48.1615 86.3438 48.2969 85.1875 48.2969C84.0521 48.2969 82.9271 48.1302 81.8125 47.7969C80.7083 47.4531 79.7448 46.9531 78.9219 46.2969C78.1406 45.651 77.5208 44.8906 77.0625 44.0156C76.6146 43.1406 76.3906 42.1146 76.3906 40.9375H80.7031C80.724 41.625 80.8438 42.2135 81.0625 42.7031C81.2812 43.1927 81.5885 43.5938 81.9844 43.9062C82.3698 44.2188 82.8333 44.4479 83.375 44.5938C83.9271 44.7396 84.5312 44.8125 85.1875 44.8125C85.7708 44.8125 86.2865 44.7448 86.7344 44.6094C87.1927 44.474 87.5781 44.2865 87.8906 44.0469C88.2031 43.8073 88.4427 43.5208 88.6094 43.1875C88.776 42.8438 88.8594 42.4688 88.8594 42.0625ZM104.391 26.9531V31.0938H110.703V34.2969H104.391V41.5625C104.391 42.1771 104.458 42.6927 104.594 43.1094C104.74 43.5156 104.943 43.8385 105.203 44.0781C105.464 44.3281 105.776 44.5052 106.141 44.6094C106.516 44.7135 106.932 44.7656 107.391 44.7656C107.724 44.7656 108.062 44.75 108.406 44.7188C108.76 44.6875 109.099 44.6458 109.422 44.5938C109.734 44.5521 110.026 44.5052 110.297 44.4531C110.578 44.401 110.818 44.349 111.016 44.2969L111.438 47.2812C111.135 47.4583 110.781 47.6146 110.375 47.75C109.969 47.875 109.536 47.9792 109.078 48.0625C108.62 48.1458 108.141 48.2083 107.641 48.25C107.151 48.3021 106.667 48.3281 106.188 48.3281C105.26 48.3281 104.417 48.2083 103.656 47.9688C102.906 47.7188 102.266 47.3333 101.734 46.8125C101.193 46.3021 100.776 45.651 100.484 44.8594C100.193 44.0573 100.047 43.099 100.047 41.9844V34.2969H96.1875V31.0938H100.047V26.9531H104.391ZM126.203 48C126.099 47.7917 126.01 47.5521 125.938 47.2812C125.865 47.0104 125.802 46.724 125.75 46.4219C125.51 46.6823 125.234 46.9271 124.922 47.1562C124.609 47.3854 124.266 47.5833 123.891 47.75C123.505 47.9271 123.083 48.0625 122.625 48.1562C122.167 48.2604 121.672 48.3125 121.141 48.3125C120.276 48.3125 119.479 48.1875 118.75 47.9375C118.031 47.6875 117.411 47.3385 116.891 46.8906C116.37 46.4427 115.964 45.9115 115.672 45.2969C115.38 44.6719 115.234 43.9948 115.234 43.2656C115.234 42.3281 115.417 41.5 115.781 40.7812C116.146 40.0521 116.693 39.4531 117.422 38.9844C118.078 38.5573 118.885 38.2344 119.844 38.0156C120.812 37.7865 121.922 37.6719 123.172 37.6719H125.594V36.6719C125.594 36.276 125.531 35.9219 125.406 35.6094C125.281 35.2865 125.094 35.0104 124.844 34.7812C124.583 34.5417 124.255 34.3594 123.859 34.2344C123.474 34.099 123.021 34.0312 122.5 34.0312C122.042 34.0312 121.646 34.0885 121.312 34.2031C120.979 34.3073 120.708 34.4583 120.5 34.6562C120.312 34.8333 120.172 35.0469 120.078 35.2969C119.995 35.5469 119.953 35.8229 119.953 36.125H115.609C115.609 35.4062 115.766 34.724 116.078 34.0781C116.401 33.4323 116.87 32.8646 117.484 32.375C118.089 31.8854 118.828 31.5 119.703 31.2188C120.589 30.9271 121.599 30.7812 122.734 30.7812C123.755 30.7812 124.703 30.9062 125.578 31.1562C126.464 31.4062 127.229 31.776 127.875 32.2656C128.521 32.7552 129.026 33.375 129.391 34.125C129.755 34.8646 129.938 35.724 129.938 36.7031V43.9531C129.938 44.8594 129.995 45.6094 130.109 46.2031C130.224 46.7969 130.391 47.3073 130.609 47.7344V48H126.203ZM122.062 44.9531C122.5 44.9531 122.906 44.901 123.281 44.7969C123.656 44.6927 123.995 44.5573 124.297 44.3906C124.599 44.224 124.859 44.0365 125.078 43.8281C125.297 43.6094 125.469 43.3906 125.594 43.1719V40.2656H123.375C122.698 40.2656 122.12 40.3333 121.641 40.4688C121.161 40.5938 120.771 40.7708 120.469 41C120.167 41.2396 119.943 41.526 119.797 41.8594C119.651 42.1823 119.578 42.5365 119.578 42.9219C119.578 43.224 119.63 43.5052 119.734 43.7656C119.849 44.0156 120.01 44.2292 120.219 44.4062C120.427 44.5729 120.682 44.7083 120.984 44.8125C121.297 44.9062 121.656 44.9531 122.062 44.9531ZM134.859 48V31.0938H138.797L139.062 33.4375C139.281 33.125 139.521 32.8385 139.781 32.5781C140.042 32.3177 140.318 32.0833 140.609 31.875C141.109 31.5208 141.656 31.25 142.25 31.0625C142.844 30.875 143.474 30.7812 144.141 30.7812C144.995 30.7812 145.776 30.9062 146.484 31.1562C147.193 31.4062 147.807 31.8021 148.328 32.3438C148.839 32.8958 149.234 33.6042 149.516 34.4688C149.807 35.3229 149.953 36.3646 149.953 37.5938V48H145.609V37.6562C145.609 36.9896 145.531 36.4427 145.375 36.0156C145.229 35.5781 145.016 35.2344 144.734 34.9844C144.453 34.7344 144.115 34.5625 143.719 34.4688C143.323 34.3646 142.875 34.3125 142.375 34.3125C141.958 34.3125 141.573 34.3594 141.219 34.4531C140.875 34.5469 140.568 34.6875 140.297 34.875C140.078 35.0104 139.88 35.1719 139.703 35.3594C139.526 35.5469 139.365 35.7552 139.219 35.9844V48H134.859ZM158.281 48V34.2969H153.844V31.0938H158.281V30.1719C158.281 29.0573 158.458 28.0729 158.812 27.2188C159.167 26.3646 159.672 25.6458 160.328 25.0625C160.984 24.4792 161.781 24.0417 162.719 23.75C163.656 23.4479 164.703 23.2969 165.859 23.2969C166.224 23.2969 166.573 23.3125 166.906 23.3438C167.25 23.3646 167.583 23.3958 167.906 23.4375C168.229 23.4792 168.552 23.526 168.875 23.5781C169.208 23.6302 169.552 23.6875 169.906 23.75L169.625 27.1562C169.229 27.0729 168.781 27 168.281 26.9375C167.781 26.875 167.193 26.8438 166.516 26.8438C165.786 26.8438 165.167 26.9271 164.656 27.0938C164.146 27.2604 163.74 27.5052 163.438 27.8281C163.167 28.099 162.964 28.4323 162.828 28.8281C162.703 29.224 162.641 29.6719 162.641 30.1719V31.0938H168.734V34.2969H162.641V48H158.281ZM172.703 39.3906C172.703 38.1615 172.88 37.026 173.234 35.9844C173.589 34.9323 174.109 34.0208 174.797 33.25C175.474 32.4792 176.302 31.875 177.281 31.4375C178.271 31 179.401 30.7812 180.672 30.7812C181.943 30.7812 183.073 31 184.062 31.4375C185.052 31.875 185.891 32.4792 186.578 33.25C187.255 34.0208 187.771 34.9323 188.125 35.9844C188.479 37.026 188.656 38.1615 188.656 39.3906V39.7188C188.656 40.9583 188.479 42.1042 188.125 43.1562C187.771 44.1979 187.255 45.1042 186.578 45.875C185.901 46.6458 185.068 47.25 184.078 47.6875C183.089 48.1146 181.964 48.3281 180.703 48.3281C179.432 48.3281 178.297 48.1146 177.297 47.6875C176.307 47.25 175.474 46.6458 174.797 45.875C174.109 45.1042 173.589 44.1979 173.234 43.1562C172.88 42.1042 172.703 40.9583 172.703 39.7188V39.3906ZM177.047 39.7188C177.047 40.4271 177.115 41.0938 177.25 41.7188C177.385 42.3333 177.599 42.8698 177.891 43.3281C178.182 43.7969 178.557 44.1667 179.016 44.4375C179.484 44.7083 180.047 44.8438 180.703 44.8438C181.339 44.8438 181.885 44.7083 182.344 44.4375C182.802 44.1667 183.177 43.7969 183.469 43.3281C183.75 42.8698 183.958 42.3333 184.094 41.7188C184.229 41.0938 184.297 40.4271 184.297 39.7188V39.3906C184.297 38.7031 184.229 38.0521 184.094 37.4375C183.958 36.8229 183.75 36.2812 183.469 35.8125C183.177 35.3438 182.802 34.974 182.344 34.7031C181.885 34.4323 181.328 34.2969 180.672 34.2969C180.026 34.2969 179.474 34.4323 179.016 34.7031C178.557 34.974 178.182 35.3438 177.891 35.8125C177.599 36.2812 177.385 36.8229 177.25 37.4375C177.115 38.0521 177.047 38.7031 177.047 39.3906V39.7188ZM204.656 30.7812C205.312 30.7812 205.917 30.8281 206.469 30.9219C207.031 31.0052 207.484 31.099 207.828 31.2031L207.188 35.5312C206.615 35.3958 206.026 35.2969 205.422 35.2344C204.828 35.1615 204.26 35.125 203.719 35.125C203.156 35.125 202.646 35.1771 202.188 35.2812C201.74 35.375 201.339 35.5208 200.984 35.7188C200.557 35.9479 200.193 36.2396 199.891 36.5938C199.589 36.9479 199.339 37.3646 199.141 37.8438V48H194.797V31.0938H198.844L199.016 33.4844L199.047 33.8594C199.734 32.901 200.557 32.151 201.516 31.6094C202.474 31.0573 203.521 30.7812 204.656 30.7812ZM211.281 39.4219C211.281 38.1406 211.427 36.9688 211.719 35.9062C212.021 34.8438 212.458 33.9323 213.031 33.1719C213.604 32.4115 214.297 31.8229 215.109 31.4062C215.932 30.9896 216.87 30.7812 217.922 30.7812C218.807 30.7812 219.583 30.9427 220.25 31.2656C220.927 31.5781 221.526 32.026 222.047 32.6094V24H226.406V48H222.484L222.266 46.2344C221.734 46.8906 221.109 47.401 220.391 47.7656C219.672 48.1302 218.839 48.3125 217.891 48.3125C216.859 48.3125 215.932 48.099 215.109 47.6719C214.297 47.2344 213.609 46.6354 213.047 45.875C212.474 45.1146 212.036 44.2135 211.734 43.1719C211.432 42.1198 211.281 40.9792 211.281 39.75V39.4219ZM215.625 39.75C215.625 40.4583 215.682 41.1198 215.797 41.7344C215.922 42.3385 216.12 42.8646 216.391 43.3125C216.661 43.7708 217.01 44.1302 217.438 44.3906C217.865 44.651 218.385 44.7812 219 44.7812C219.75 44.7812 220.37 44.6198 220.859 44.2969C221.359 43.974 221.755 43.5312 222.047 42.9688V36.125C221.755 35.5521 221.365 35.1094 220.875 34.7969C220.385 34.474 219.771 34.3125 219.031 34.3125C218.417 34.3125 217.891 34.4479 217.453 34.7188C217.026 34.9792 216.677 35.3385 216.406 35.7969C216.135 36.2656 215.938 36.8125 215.812 37.4375C215.688 38.0521 215.625 38.7135 215.625 39.4219V39.75ZM261.828 42.0625C261.828 41.6562 261.755 41.276 261.609 40.9219C261.474 40.5677 261.24 40.2344 260.906 39.9219C260.562 39.6198 260.115 39.3438 259.562 39.0938C259.021 38.8333 258.344 38.5938 257.531 38.375C256.271 38.0312 255.161 37.6146 254.203 37.125C253.255 36.6354 252.479 36.099 251.875 35.5156C251.271 34.9323 250.812 34.2865 250.5 33.5781C250.198 32.8698 250.047 32.099 250.047 31.2656C250.047 30.3073 250.25 29.4375 250.656 28.6562C251.062 27.875 251.625 27.2083 252.344 26.6562C253.062 26.1042 253.911 25.6823 254.891 25.3906C255.87 25.0885 256.932 24.9375 258.078 24.9375C259.266 24.9375 260.349 25.1094 261.328 25.4531C262.318 25.7969 263.167 26.276 263.875 26.8906C264.583 27.5156 265.135 28.2552 265.531 29.1094C265.927 29.9635 266.125 30.901 266.125 31.9219H261.844C261.823 31.4115 261.729 30.9427 261.562 30.5156C261.406 30.0885 261.172 29.7188 260.859 29.4062C260.536 29.1042 260.135 28.8698 259.656 28.7031C259.188 28.526 258.635 28.4375 258 28.4375C257.417 28.4375 256.896 28.5104 256.438 28.6562C255.99 28.7917 255.609 28.9844 255.297 29.2344C254.984 29.4948 254.745 29.8021 254.578 30.1562C254.422 30.5 254.344 30.875 254.344 31.2812C254.344 31.7083 254.448 32.0938 254.656 32.4375C254.875 32.7812 255.188 33.0885 255.594 33.3594C256 33.6406 256.49 33.8958 257.062 34.125C257.646 34.3542 258.302 34.5677 259.031 34.7656C259.812 34.9844 260.557 35.25 261.266 35.5625C261.974 35.875 262.625 36.2344 263.219 36.6406C264.115 37.3073 264.828 38.0833 265.359 38.9688C265.891 39.8542 266.156 40.875 266.156 42.0312C266.156 43.0312 265.953 43.9219 265.547 44.7031C265.151 45.474 264.599 46.125 263.891 46.6562C263.182 47.1979 262.339 47.6094 261.359 47.8906C260.38 48.1615 259.312 48.2969 258.156 48.2969C257.021 48.2969 255.896 48.1302 254.781 47.7969C253.677 47.4531 252.714 46.9531 251.891 46.2969C251.109 45.651 250.49 44.8906 250.031 44.0156C249.583 43.1406 249.359 42.1146 249.359 40.9375H253.672C253.693 41.625 253.812 42.2135 254.031 42.7031C254.25 43.1927 254.557 43.5938 254.953 43.9062C255.339 44.2188 255.802 44.4479 256.344 44.5938C256.896 44.7396 257.5 44.8125 258.156 44.8125C258.74 44.8125 259.255 44.7448 259.703 44.6094C260.161 44.474 260.547 44.2865 260.859 44.0469C261.172 43.8073 261.411 43.5208 261.578 43.1875C261.745 42.8438 261.828 42.4688 261.828 42.0625ZM277.359 26.9531V31.0938H283.672V34.2969H277.359V41.5625C277.359 42.1771 277.427 42.6927 277.562 43.1094C277.708 43.5156 277.911 43.8385 278.172 44.0781C278.432 44.3281 278.745 44.5052 279.109 44.6094C279.484 44.7135 279.901 44.7656 280.359 44.7656C280.693 44.7656 281.031 44.75 281.375 44.7188C281.729 44.6875 282.068 44.6458 282.391 44.5938C282.703 44.5521 282.995 44.5052 283.266 44.4531C283.547 44.401 283.786 44.349 283.984 44.2969L284.406 47.2812C284.104 47.4583 283.75 47.6146 283.344 47.75C282.938 47.875 282.505 47.9792 282.047 48.0625C281.589 48.1458 281.109 48.2083 280.609 48.25C280.12 48.3021 279.635 48.3281 279.156 48.3281C278.229 48.3281 277.385 48.2083 276.625 47.9688C275.875 47.7188 275.234 47.3333 274.703 46.8125C274.161 46.3021 273.745 45.651 273.453 44.8594C273.161 44.0573 273.016 43.099 273.016 41.9844V34.2969H269.156V31.0938H273.016V26.9531H277.359ZM299.641 48L299.391 45.625C298.818 46.4688 298.125 47.1302 297.312 47.6094C296.51 48.0885 295.63 48.3281 294.672 48.3281C293.797 48.3281 292.995 48.1927 292.266 47.9219C291.536 47.651 290.911 47.2188 290.391 46.625C289.87 46.0417 289.464 45.2969 289.172 44.3906C288.891 43.474 288.75 42.375 288.75 41.0938V31.0938H293.094V41.125C293.094 41.8125 293.141 42.3906 293.234 42.8594C293.339 43.3281 293.5 43.7031 293.719 43.9844C293.938 44.276 294.224 44.4844 294.578 44.6094C294.932 44.7344 295.365 44.7969 295.875 44.7969C296.333 44.7969 296.745 44.75 297.109 44.6562C297.484 44.5625 297.812 44.4271 298.094 44.25C298.333 44.0938 298.547 43.9062 298.734 43.6875C298.922 43.4688 299.083 43.224 299.219 42.9531V31.0938H303.578V48H299.641ZM307.375 39.4219C307.375 38.1406 307.521 36.9688 307.812 35.9062C308.115 34.8438 308.552 33.9323 309.125 33.1719C309.698 32.4115 310.391 31.8229 311.203 31.4062C312.026 30.9896 312.964 30.7812 314.016 30.7812C314.901 30.7812 315.677 30.9427 316.344 31.2656C317.021 31.5781 317.62 32.026 318.141 32.6094V24H322.5V48H318.578L318.359 46.2344C317.828 46.8906 317.203 47.401 316.484 47.7656C315.766 48.1302 314.932 48.3125 313.984 48.3125C312.953 48.3125 312.026 48.099 311.203 47.6719C310.391 47.2344 309.703 46.6354 309.141 45.875C308.568 45.1146 308.13 44.2135 307.828 43.1719C307.526 42.1198 307.375 40.9792 307.375 39.75V39.4219ZM311.719 39.75C311.719 40.4583 311.776 41.1198 311.891 41.7344C312.016 42.3385 312.214 42.8646 312.484 43.3125C312.755 43.7708 313.104 44.1302 313.531 44.3906C313.958 44.651 314.479 44.7812 315.094 44.7812C315.844 44.7812 316.464 44.6198 316.953 44.2969C317.453 43.974 317.849 43.5312 318.141 42.9688V36.125C317.849 35.5521 317.458 35.1094 316.969 34.7969C316.479 34.474 315.865 34.3125 315.125 34.3125C314.51 34.3125 313.984 34.4479 313.547 34.7188C313.12 34.9792 312.771 35.3385 312.5 35.7969C312.229 36.2656 312.031 36.8125 311.906 37.4375C311.781 38.0521 311.719 38.7135 311.719 39.4219V39.75ZM328.203 31.0938H337.406V44.4688H341.984V48H328.203V44.4688H333.016V34.6406H328.203V31.0938ZM332.703 26.7656C332.703 26.4323 332.76 26.125 332.875 25.8438C333 25.5521 333.172 25.3021 333.391 25.0938C333.609 24.8958 333.87 24.7396 334.172 24.625C334.484 24.5104 334.828 24.4531 335.203 24.4531C335.974 24.4531 336.583 24.6719 337.031 25.1094C337.49 25.5365 337.719 26.0885 337.719 26.7656C337.719 27.4427 337.49 28 337.031 28.4375C336.583 28.8646 335.974 29.0781 335.203 29.0781C334.828 29.0781 334.484 29.0208 334.172 28.9062C333.87 28.7917 333.609 28.6302 333.391 28.4219C333.172 28.224 333 27.9844 332.875 27.7031C332.76 27.4115 332.703 27.099 332.703 26.7656ZM345.672 39.3906C345.672 38.1615 345.849 37.026 346.203 35.9844C346.557 34.9323 347.078 34.0208 347.766 33.25C348.443 32.4792 349.271 31.875 350.25 31.4375C351.24 31 352.37 30.7812 353.641 30.7812C354.911 30.7812 356.042 31 357.031 31.4375C358.021 31.875 358.859 32.4792 359.547 33.25C360.224 34.0208 360.74 34.9323 361.094 35.9844C361.448 37.026 361.625 38.1615 361.625 39.3906V39.7188C361.625 40.9583 361.448 42.1042 361.094 43.1562C360.74 44.1979 360.224 45.1042 359.547 45.875C358.87 46.6458 358.036 47.25 357.047 47.6875C356.057 48.1146 354.932 48.3281 353.672 48.3281C352.401 48.3281 351.266 48.1146 350.266 47.6875C349.276 47.25 348.443 46.6458 347.766 45.875C347.078 45.1042 346.557 44.1979 346.203 43.1562C345.849 42.1042 345.672 40.9583 345.672 39.7188V39.3906ZM350.016 39.7188C350.016 40.4271 350.083 41.0938 350.219 41.7188C350.354 42.3333 350.568 42.8698 350.859 43.3281C351.151 43.7969 351.526 44.1667 351.984 44.4375C352.453 44.7083 353.016 44.8438 353.672 44.8438C354.307 44.8438 354.854 44.7083 355.312 44.4375C355.771 44.1667 356.146 43.7969 356.438 43.3281C356.719 42.8698 356.927 42.3333 357.062 41.7188C357.198 41.0938 357.266 40.4271 357.266 39.7188V39.3906C357.266 38.7031 357.198 38.0521 357.062 37.4375C356.927 36.8229 356.719 36.2812 356.438 35.8125C356.146 35.3438 355.771 34.974 355.312 34.7031C354.854 34.4323 354.297 34.2969 353.641 34.2969C352.995 34.2969 352.443 34.4323 351.984 34.7031C351.526 34.974 351.151 35.3438 350.859 35.8125C350.568 36.2812 350.354 36.8229 350.219 37.4375C350.083 38.0521 350.016 38.7031 350.016 39.3906V39.7188Z" fill="#1B1B1B"/>
<path d="M245.312 51.3906H231.062V48H245.312V51.3906Z" fill="#FF4A4E"/>
<defs>
<clipPath id="clip0_220_105">
<rect width="43.2" height="72" fill="white"/>
</clipPath>
</defs>
</svg>
