<svg width="508" height="72" viewBox="0 0 508 72" fill="none" xmlns="http://www.w3.org/2000/svg">
<g clip-path="url(#clip0_220_79)">
<path d="M30.4 28.8C29.5168 28.8 28.8 29.5168 28.8 30.4V52.8L23.0304 64.3376C22.44 65.5168 20.7584 65.5168 20.168 64.3376L14.8416 53.6848C14.5712 53.1424 14.016 52.8 13.4112 52.8H1.6C0.7168 52.8 0 53.5168 0 54.4V61.7376C0 62.1616 0.168 62.5696 0.4688 62.8688L9.1312 71.5312C9.432 71.832 9.8384 72 10.2624 72H32.9376C33.3616 72 33.7696 71.832 34.0688 71.5312L42.7312 62.8688C43.032 62.568 43.2 62.1616 43.2 61.7376V39.0624C43.2 38.6384 43.032 38.2304 42.7312 37.9312L34.0688 29.2688C33.768 28.968 33.3616 28.8 32.9376 28.8H30.4Z" fill="#FF2A2F"/>
<path d="M32.9376 0H10.2624C9.8384 0 9.4304 0.168 9.1312 0.4688L0.4688 9.1312C0.168 9.432 0 9.8384 0 10.2624V32.9376C0 33.3616 0.168 33.7696 0.4688 34.0688L9.1312 42.7312C9.432 43.032 9.8384 43.2 10.2624 43.2H12.8C13.6832 43.2 14.4 42.4832 14.4 41.6V14.4C14.4 13.5584 14.544 12.7504 14.8112 12C15.7984 9.2032 18.4656 7.2 21.6 7.2C24.7344 7.2 27.4016 9.2032 28.3888 12C28.656 12.7504 28.8 13.5584 28.8 14.4V17.6C28.8 18.4832 29.5168 19.2 30.4 19.2H41.6C42.4832 19.2 43.2 18.4832 43.2 17.6V10.2624C43.2 9.8384 43.032 9.4304 42.7312 9.1312L34.0688 0.4688C33.768 0.168 33.3616 0 32.9376 0Z" fill="#FF2A2F"/>
</g>
<path d="M95.7891 45.0938C95.7891 44.4844 95.6797 43.9141 95.4609 43.3828C95.2578 42.8516 94.9062 42.3516 94.4062 41.8828C93.8906 41.4297 93.2188 41.0156 92.3906 40.6406C91.5781 40.25 90.5625 39.8906 89.3438 39.5625C87.4531 39.0469 85.7891 38.4219 84.3516 37.6875C82.9297 36.9531 81.7656 36.1484 80.8594 35.2734C79.9531 34.3984 79.2656 33.4297 78.7969 32.3672C78.3438 31.3047 78.1172 30.1484 78.1172 28.8984C78.1172 27.4609 78.4219 26.1562 79.0312 24.9844C79.6406 23.8125 80.4844 22.8125 81.5625 21.9844C82.6406 21.1562 83.9141 20.5234 85.3828 20.0859C86.8516 19.6328 88.4453 19.4062 90.1641 19.4062C91.9453 19.4062 93.5703 19.6641 95.0391 20.1797C96.5234 20.6953 97.7969 21.4141 98.8594 22.3359C99.9219 23.2734 100.75 24.3828 101.344 25.6641C101.938 26.9453 102.234 28.3516 102.234 29.8828H95.8125C95.7812 29.1172 95.6406 28.4141 95.3906 27.7734C95.1562 27.1328 94.8047 26.5781 94.3359 26.1094C93.8516 25.6562 93.25 25.3047 92.5312 25.0547C91.8281 24.7891 91 24.6562 90.0469 24.6562C89.1719 24.6562 88.3906 24.7656 87.7031 24.9844C87.0312 25.1875 86.4609 25.4766 85.9922 25.8516C85.5234 26.2422 85.1641 26.7031 84.9141 27.2344C84.6797 27.75 84.5625 28.3125 84.5625 28.9219C84.5625 29.5625 84.7188 30.1406 85.0312 30.6562C85.3594 31.1719 85.8281 31.6328 86.4375 32.0391C87.0469 32.4609 87.7812 32.8438 88.6406 33.1875C89.5156 33.5312 90.5 33.8516 91.5938 34.1484C92.7656 34.4766 93.8828 34.875 94.9453 35.3438C96.0078 35.8125 96.9844 36.3516 97.875 36.9609C99.2188 37.9609 100.289 39.125 101.086 40.4531C101.883 41.7812 102.281 43.3125 102.281 45.0469C102.281 46.5469 101.977 47.8828 101.367 49.0547C100.773 50.2109 99.9453 51.1875 98.8828 51.9844C97.8203 52.7969 96.5547 53.4141 95.0859 53.8359C93.6172 54.2422 92.0156 54.4453 90.2812 54.4453C88.5781 54.4453 86.8906 54.1953 85.2188 53.6953C83.5625 53.1797 82.1172 52.4297 80.8828 51.4453C79.7109 50.4766 78.7812 49.3359 78.0938 48.0234C77.4219 46.7109 77.0859 45.1719 77.0859 43.4062H83.5547C83.5859 44.4375 83.7656 45.3203 84.0938 46.0547C84.4219 46.7891 84.8828 47.3906 85.4766 47.8594C86.0547 48.3281 86.75 48.6719 87.5625 48.8906C88.3906 49.1094 89.2969 49.2188 90.2812 49.2188C91.1562 49.2188 91.9297 49.1172 92.6016 48.9141C93.2891 48.7109 93.8672 48.4297 94.3359 48.0703C94.8047 47.7109 95.1641 47.2812 95.4141 46.7812C95.6641 46.2656 95.7891 45.7031 95.7891 45.0938ZM119.086 22.4297V28.6406H128.555V33.4453H119.086V44.3438C119.086 45.2656 119.188 46.0391 119.391 46.6641C119.609 47.2734 119.914 47.7578 120.305 48.1172C120.695 48.4922 121.164 48.7578 121.711 48.9141C122.273 49.0703 122.898 49.1484 123.586 49.1484C124.086 49.1484 124.594 49.125 125.109 49.0781C125.641 49.0312 126.148 48.9688 126.633 48.8906C127.102 48.8281 127.539 48.7578 127.945 48.6797C128.367 48.6016 128.727 48.5234 129.023 48.4453L129.656 52.9219C129.203 53.1875 128.672 53.4219 128.062 53.625C127.453 53.8125 126.805 53.9688 126.117 54.0938C125.43 54.2188 124.711 54.3125 123.961 54.375C123.227 54.4531 122.5 54.4922 121.781 54.4922C120.391 54.4922 119.125 54.3125 117.984 53.9531C116.859 53.5781 115.898 53 115.102 52.2188C114.289 51.4531 113.664 50.4766 113.227 49.2891C112.789 48.0859 112.57 46.6484 112.57 44.9766V33.4453H106.781V28.6406H112.57V22.4297H119.086ZM151.805 54C151.648 53.6875 151.516 53.3281 151.406 52.9219C151.297 52.5156 151.203 52.0859 151.125 51.6328C150.766 52.0234 150.352 52.3906 149.883 52.7344C149.414 53.0781 148.898 53.375 148.336 53.625C147.758 53.8906 147.125 54.0938 146.438 54.2344C145.75 54.3906 145.008 54.4688 144.211 54.4688C142.914 54.4688 141.719 54.2812 140.625 53.9062C139.547 53.5312 138.617 53.0078 137.836 52.3359C137.055 51.6641 136.445 50.8672 136.008 49.9453C135.57 49.0078 135.352 47.9922 135.352 46.8984C135.352 45.4922 135.625 44.25 136.172 43.1719C136.719 42.0781 137.539 41.1797 138.633 40.4766C139.617 39.8359 140.828 39.3516 142.266 39.0234C143.719 38.6797 145.383 38.5078 147.258 38.5078H150.891V37.0078C150.891 36.4141 150.797 35.8828 150.609 35.4141C150.422 34.9297 150.141 34.5156 149.766 34.1719C149.375 33.8125 148.883 33.5391 148.289 33.3516C147.711 33.1484 147.031 33.0469 146.25 33.0469C145.562 33.0469 144.969 33.1328 144.469 33.3047C143.969 33.4609 143.562 33.6875 143.25 33.9844C142.969 34.25 142.758 34.5703 142.617 34.9453C142.492 35.3203 142.43 35.7344 142.43 36.1875H135.914C135.914 35.1094 136.148 34.0859 136.617 33.1172C137.102 32.1484 137.805 31.2969 138.727 30.5625C139.633 29.8281 140.742 29.25 142.055 28.8281C143.383 28.3906 144.898 28.1719 146.602 28.1719C148.133 28.1719 149.555 28.3594 150.867 28.7344C152.195 29.1094 153.344 29.6641 154.312 30.3984C155.281 31.1328 156.039 32.0625 156.586 33.1875C157.133 34.2969 157.406 35.5859 157.406 37.0547V47.9297C157.406 49.2891 157.492 50.4141 157.664 51.3047C157.836 52.1953 158.086 52.9609 158.414 53.6016V54H151.805ZM145.594 49.4297C146.25 49.4297 146.859 49.3516 147.422 49.1953C147.984 49.0391 148.492 48.8359 148.945 48.5859C149.398 48.3359 149.789 48.0547 150.117 47.7422C150.445 47.4141 150.703 47.0859 150.891 46.7578V42.3984H147.562C146.547 42.3984 145.68 42.5 144.961 42.7031C144.242 42.8906 143.656 43.1562 143.203 43.5C142.75 43.8594 142.414 44.2891 142.195 44.7891C141.977 45.2734 141.867 45.8047 141.867 46.3828C141.867 46.8359 141.945 47.2578 142.102 47.6484C142.273 48.0234 142.516 48.3438 142.828 48.6094C143.141 48.8594 143.523 49.0625 143.977 49.2188C144.445 49.3594 144.984 49.4297 145.594 49.4297ZM164.789 54V28.6406H170.695L171.094 32.1562C171.422 31.6875 171.781 31.2578 172.172 30.8672C172.562 30.4766 172.977 30.125 173.414 29.8125C174.164 29.2812 174.984 28.875 175.875 28.5938C176.766 28.3125 177.711 28.1719 178.711 28.1719C179.992 28.1719 181.164 28.3594 182.227 28.7344C183.289 29.1094 184.211 29.7031 184.992 30.5156C185.758 31.3438 186.352 32.4062 186.773 33.7031C187.211 34.9844 187.43 36.5469 187.43 38.3906V54H180.914V38.4844C180.914 37.4844 180.797 36.6641 180.562 36.0234C180.344 35.3672 180.023 34.8516 179.602 34.4766C179.18 34.1016 178.672 33.8438 178.078 33.7031C177.484 33.5469 176.812 33.4688 176.062 33.4688C175.438 33.4688 174.859 33.5391 174.328 33.6797C173.812 33.8203 173.352 34.0312 172.945 34.3125C172.617 34.5156 172.32 34.7578 172.055 35.0391C171.789 35.3203 171.547 35.6328 171.328 35.9766V54H164.789ZM199.922 54V33.4453H193.266V28.6406H199.922V27.2578C199.922 25.5859 200.188 24.1094 200.719 22.8281C201.25 21.5469 202.008 20.4688 202.992 19.5938C203.977 18.7188 205.172 18.0625 206.578 17.625C207.984 17.1719 209.555 16.9453 211.289 16.9453C211.836 16.9453 212.359 16.9688 212.859 17.0156C213.375 17.0469 213.875 17.0938 214.359 17.1562C214.844 17.2188 215.328 17.2891 215.812 17.3672C216.312 17.4453 216.828 17.5312 217.359 17.625L216.938 22.7344C216.344 22.6094 215.672 22.5 214.922 22.4062C214.172 22.3125 213.289 22.2656 212.273 22.2656C211.18 22.2656 210.25 22.3906 209.484 22.6406C208.719 22.8906 208.109 23.2578 207.656 23.7422C207.25 24.1484 206.945 24.6484 206.742 25.2422C206.555 25.8359 206.461 26.5078 206.461 27.2578V28.6406H215.602V33.4453H206.461V54H199.922ZM221.555 41.0859C221.555 39.2422 221.82 37.5391 222.352 35.9766C222.883 34.3984 223.664 33.0312 224.695 31.875C225.711 30.7188 226.953 29.8125 228.422 29.1562C229.906 28.5 231.602 28.1719 233.508 28.1719C235.414 28.1719 237.109 28.5 238.594 29.1562C240.078 29.8125 241.336 30.7188 242.367 31.875C243.383 33.0312 244.156 34.3984 244.688 35.9766C245.219 37.5391 245.484 39.2422 245.484 41.0859V41.5781C245.484 43.4375 245.219 45.1562 244.688 46.7344C244.156 48.2969 243.383 49.6562 242.367 50.8125C241.352 51.9688 240.102 52.875 238.617 53.5312C237.133 54.1719 235.445 54.4922 233.555 54.4922C231.648 54.4922 229.945 54.1719 228.445 53.5312C226.961 52.875 225.711 51.9688 224.695 50.8125C223.664 49.6562 222.883 48.2969 222.352 46.7344C221.82 45.1562 221.555 43.4375 221.555 41.5781V41.0859ZM228.07 41.5781C228.07 42.6406 228.172 43.6406 228.375 44.5781C228.578 45.5 228.898 46.3047 229.336 46.9922C229.773 47.6953 230.336 48.25 231.023 48.6562C231.727 49.0625 232.57 49.2656 233.555 49.2656C234.508 49.2656 235.328 49.0625 236.016 48.6562C236.703 48.25 237.266 47.6953 237.703 46.9922C238.125 46.3047 238.438 45.5 238.641 44.5781C238.844 43.6406 238.945 42.6406 238.945 41.5781V41.0859C238.945 40.0547 238.844 39.0781 238.641 38.1562C238.438 37.2344 238.125 36.4219 237.703 35.7188C237.266 35.0156 236.703 34.4609 236.016 34.0547C235.328 33.6484 234.492 33.4453 233.508 33.4453C232.539 33.4453 231.711 33.6484 231.023 34.0547C230.336 34.4609 229.773 35.0156 229.336 35.7188C228.898 36.4219 228.578 37.2344 228.375 38.1562C228.172 39.0781 228.07 40.0547 228.07 41.0859V41.5781ZM269.484 28.1719C270.469 28.1719 271.375 28.2422 272.203 28.3828C273.047 28.5078 273.727 28.6484 274.242 28.8047L273.281 35.2969C272.422 35.0938 271.539 34.9453 270.633 34.8516C269.742 34.7422 268.891 34.6875 268.078 34.6875C267.234 34.6875 266.469 34.7656 265.781 34.9219C265.109 35.0625 264.508 35.2812 263.977 35.5781C263.336 35.9219 262.789 36.3594 262.336 36.8906C261.883 37.4219 261.508 38.0469 261.211 38.7656V54H254.695V28.6406H260.766L261.023 32.2266L261.07 32.7891C262.102 31.3516 263.336 30.2266 264.773 29.4141C266.211 28.5859 267.781 28.1719 269.484 28.1719ZM279.422 41.1328C279.422 39.2109 279.641 37.4531 280.078 35.8594C280.531 34.2656 281.188 32.8984 282.047 31.7578C282.906 30.6172 283.945 29.7344 285.164 29.1094C286.398 28.4844 287.805 28.1719 289.383 28.1719C290.711 28.1719 291.875 28.4141 292.875 28.8984C293.891 29.3672 294.789 30.0391 295.57 30.9141V18H302.109V54H296.227L295.898 51.3516C295.102 52.3359 294.164 53.1016 293.086 53.6484C292.008 54.1953 290.758 54.4688 289.336 54.4688C287.789 54.4688 286.398 54.1484 285.164 53.5078C283.945 52.8516 282.914 51.9531 282.07 50.8125C281.211 49.6719 280.555 48.3203 280.102 46.7578C279.648 45.1797 279.422 43.4688 279.422 41.625V41.1328ZM285.938 41.625C285.938 42.6875 286.023 43.6797 286.195 44.6016C286.383 45.5078 286.68 46.2969 287.086 46.9688C287.492 47.6562 288.016 48.1953 288.656 48.5859C289.297 48.9766 290.078 49.1719 291 49.1719C292.125 49.1719 293.055 48.9297 293.789 48.4453C294.539 47.9609 295.133 47.2969 295.57 46.4531V36.1875C295.133 35.3281 294.547 34.6641 293.812 34.1953C293.078 33.7109 292.156 33.4688 291.047 33.4688C290.125 33.4688 289.336 33.6719 288.68 34.0781C288.039 34.4688 287.516 35.0078 287.109 35.6953C286.703 36.3984 286.406 37.2188 286.219 38.1562C286.031 39.0781 285.938 40.0703 285.938 41.1328V41.625ZM355.242 45.0938C355.242 44.4844 355.133 43.9141 354.914 43.3828C354.711 42.8516 354.359 42.3516 353.859 41.8828C353.344 41.4297 352.672 41.0156 351.844 40.6406C351.031 40.25 350.016 39.8906 348.797 39.5625C346.906 39.0469 345.242 38.4219 343.805 37.6875C342.383 36.9531 341.219 36.1484 340.312 35.2734C339.406 34.3984 338.719 33.4297 338.25 32.3672C337.797 31.3047 337.57 30.1484 337.57 28.8984C337.57 27.4609 337.875 26.1562 338.484 24.9844C339.094 23.8125 339.938 22.8125 341.016 21.9844C342.094 21.1562 343.367 20.5234 344.836 20.0859C346.305 19.6328 347.898 19.4062 349.617 19.4062C351.398 19.4062 353.023 19.6641 354.492 20.1797C355.977 20.6953 357.25 21.4141 358.312 22.3359C359.375 23.2734 360.203 24.3828 360.797 25.6641C361.391 26.9453 361.688 28.3516 361.688 29.8828H355.266C355.234 29.1172 355.094 28.4141 354.844 27.7734C354.609 27.1328 354.258 26.5781 353.789 26.1094C353.305 25.6562 352.703 25.3047 351.984 25.0547C351.281 24.7891 350.453 24.6562 349.5 24.6562C348.625 24.6562 347.844 24.7656 347.156 24.9844C346.484 25.1875 345.914 25.4766 345.445 25.8516C344.977 26.2422 344.617 26.7031 344.367 27.2344C344.133 27.75 344.016 28.3125 344.016 28.9219C344.016 29.5625 344.172 30.1406 344.484 30.6562C344.812 31.1719 345.281 31.6328 345.891 32.0391C346.5 32.4609 347.234 32.8438 348.094 33.1875C348.969 33.5312 349.953 33.8516 351.047 34.1484C352.219 34.4766 353.336 34.875 354.398 35.3438C355.461 35.8125 356.438 36.3516 357.328 36.9609C358.672 37.9609 359.742 39.125 360.539 40.4531C361.336 41.7812 361.734 43.3125 361.734 45.0469C361.734 46.5469 361.43 47.8828 360.82 49.0547C360.227 50.2109 359.398 51.1875 358.336 51.9844C357.273 52.7969 356.008 53.4141 354.539 53.8359C353.07 54.2422 351.469 54.4453 349.734 54.4453C348.031 54.4453 346.344 54.1953 344.672 53.6953C343.016 53.1797 341.57 52.4297 340.336 51.4453C339.164 50.4766 338.234 49.3359 337.547 48.0234C336.875 46.7109 336.539 45.1719 336.539 43.4062H343.008C343.039 44.4375 343.219 45.3203 343.547 46.0547C343.875 46.7891 344.336 47.3906 344.93 47.8594C345.508 48.3281 346.203 48.6719 347.016 48.8906C347.844 49.1094 348.75 49.2188 349.734 49.2188C350.609 49.2188 351.383 49.1172 352.055 48.9141C352.742 48.7109 353.32 48.4297 353.789 48.0703C354.258 47.7109 354.617 47.2812 354.867 46.7812C355.117 46.2656 355.242 45.7031 355.242 45.0938ZM378.539 22.4297V28.6406H388.008V33.4453H378.539V44.3438C378.539 45.2656 378.641 46.0391 378.844 46.6641C379.062 47.2734 379.367 47.7578 379.758 48.1172C380.148 48.4922 380.617 48.7578 381.164 48.9141C381.727 49.0703 382.352 49.1484 383.039 49.1484C383.539 49.1484 384.047 49.125 384.562 49.0781C385.094 49.0312 385.602 48.9688 386.086 48.8906C386.555 48.8281 386.992 48.7578 387.398 48.6797C387.82 48.6016 388.18 48.5234 388.477 48.4453L389.109 52.9219C388.656 53.1875 388.125 53.4219 387.516 53.625C386.906 53.8125 386.258 53.9688 385.57 54.0938C384.883 54.2188 384.164 54.3125 383.414 54.375C382.68 54.4531 381.953 54.4922 381.234 54.4922C379.844 54.4922 378.578 54.3125 377.438 53.9531C376.312 53.5781 375.352 53 374.555 52.2188C373.742 51.4531 373.117 50.4766 372.68 49.2891C372.242 48.0859 372.023 46.6484 372.023 44.9766V33.4453H366.234V28.6406H372.023V22.4297H378.539ZM411.961 54L411.586 50.4375C410.727 51.7031 409.688 52.6953 408.469 53.4141C407.266 54.1328 405.945 54.4922 404.508 54.4922C403.195 54.4922 401.992 54.2891 400.898 53.8828C399.805 53.4766 398.867 52.8281 398.086 51.9375C397.305 51.0625 396.695 49.9453 396.258 48.5859C395.836 47.2109 395.625 45.5625 395.625 43.6406V28.6406H402.141V43.6875C402.141 44.7188 402.211 45.5859 402.352 46.2891C402.508 46.9922 402.75 47.5547 403.078 47.9766C403.406 48.4141 403.836 48.7266 404.367 48.9141C404.898 49.1016 405.547 49.1953 406.312 49.1953C407 49.1953 407.617 49.125 408.164 48.9844C408.727 48.8438 409.219 48.6406 409.641 48.375C410 48.1406 410.32 47.8594 410.602 47.5312C410.883 47.2031 411.125 46.8359 411.328 46.4297V28.6406H417.867V54H411.961ZM423.562 41.1328C423.562 39.2109 423.781 37.4531 424.219 35.8594C424.672 34.2656 425.328 32.8984 426.188 31.7578C427.047 30.6172 428.086 29.7344 429.305 29.1094C430.539 28.4844 431.945 28.1719 433.523 28.1719C434.852 28.1719 436.016 28.4141 437.016 28.8984C438.031 29.3672 438.93 30.0391 439.711 30.9141V18H446.25V54H440.367L440.039 51.3516C439.242 52.3359 438.305 53.1016 437.227 53.6484C436.148 54.1953 434.898 54.4688 433.477 54.4688C431.93 54.4688 430.539 54.1484 429.305 53.5078C428.086 52.8516 427.055 51.9531 426.211 50.8125C425.352 49.6719 424.695 48.3203 424.242 46.7578C423.789 45.1797 423.562 43.4688 423.562 41.625V41.1328ZM430.078 41.625C430.078 42.6875 430.164 43.6797 430.336 44.6016C430.523 45.5078 430.82 46.2969 431.227 46.9688C431.633 47.6562 432.156 48.1953 432.797 48.5859C433.438 48.9766 434.219 49.1719 435.141 49.1719C436.266 49.1719 437.195 48.9297 437.93 48.4453C438.68 47.9609 439.273 47.2969 439.711 46.4531V36.1875C439.273 35.3281 438.688 34.6641 437.953 34.1953C437.219 33.7109 436.297 33.4688 435.188 33.4688C434.266 33.4688 433.477 33.6719 432.82 34.0781C432.18 34.4688 431.656 35.0078 431.25 35.6953C430.844 36.3984 430.547 37.2188 430.359 38.1562C430.172 39.0781 430.078 40.0703 430.078 41.1328V41.625ZM454.805 28.6406H468.609V48.7031H475.477V54H454.805V48.7031H462.023V33.9609H454.805V28.6406ZM461.555 22.1484C461.555 21.6484 461.641 21.1875 461.812 20.7656C462 20.3281 462.258 19.9531 462.586 19.6406C462.914 19.3438 463.305 19.1094 463.758 18.9375C464.227 18.7656 464.742 18.6797 465.305 18.6797C466.461 18.6797 467.375 19.0078 468.047 19.6641C468.734 20.3047 469.078 21.1328 469.078 22.1484C469.078 23.1641 468.734 24 468.047 24.6562C467.375 25.2969 466.461 25.6172 465.305 25.6172C464.742 25.6172 464.227 25.5312 463.758 25.3594C463.305 25.1875 462.914 24.9453 462.586 24.6328C462.258 24.3359 462 23.9766 461.812 23.5547C461.641 23.1172 461.555 22.6484 461.555 22.1484ZM481.008 41.0859C481.008 39.2422 481.273 37.5391 481.805 35.9766C482.336 34.3984 483.117 33.0312 484.148 31.875C485.164 30.7188 486.406 29.8125 487.875 29.1562C489.359 28.5 491.055 28.1719 492.961 28.1719C494.867 28.1719 496.562 28.5 498.047 29.1562C499.531 29.8125 500.789 30.7188 501.82 31.875C502.836 33.0312 503.609 34.3984 504.141 35.9766C504.672 37.5391 504.938 39.2422 504.938 41.0859V41.5781C504.938 43.4375 504.672 45.1562 504.141 46.7344C503.609 48.2969 502.836 49.6562 501.82 50.8125C500.805 51.9688 499.555 52.875 498.07 53.5312C496.586 54.1719 494.898 54.4922 493.008 54.4922C491.102 54.4922 489.398 54.1719 487.898 53.5312C486.414 52.875 485.164 51.9688 484.148 50.8125C483.117 49.6562 482.336 48.2969 481.805 46.7344C481.273 45.1562 481.008 43.4375 481.008 41.5781V41.0859ZM487.523 41.5781C487.523 42.6406 487.625 43.6406 487.828 44.5781C488.031 45.5 488.352 46.3047 488.789 46.9922C489.227 47.6953 489.789 48.25 490.477 48.6562C491.18 49.0625 492.023 49.2656 493.008 49.2656C493.961 49.2656 494.781 49.0625 495.469 48.6562C496.156 48.25 496.719 47.6953 497.156 46.9922C497.578 46.3047 497.891 45.5 498.094 44.5781C498.297 43.6406 498.398 42.6406 498.398 41.5781V41.0859C498.398 40.0547 498.297 39.0781 498.094 38.1562C497.891 37.2344 497.578 36.4219 497.156 35.7188C496.719 35.0156 496.156 34.4609 495.469 34.0547C494.781 33.6484 493.945 33.4453 492.961 33.4453C491.992 33.4453 491.164 33.6484 490.477 34.0547C489.789 34.4609 489.227 35.0156 488.789 35.7188C488.352 36.4219 488.031 37.2344 487.828 38.1562C487.625 39.0781 487.523 40.0547 487.523 41.0859V41.5781Z" fill="#1B1B1B"/>
<path d="M330.469 59.0859H309.094V54H330.469V59.0859Z" fill="#FF2A2F"/>
<defs>
<clipPath id="clip0_220_79">
<rect width="43.2" height="72" fill="white"/>
</clipPath>
</defs>
</svg>
