<svg width="403" height="80" viewBox="0 0 403 80" fill="none" xmlns="http://www.w3.org/2000/svg">
<path d="M113.209 55.546C111.557 55.546 109.975 55.287 108.463 54.769C106.965 54.251 105.649 53.502 104.515 52.522C103.395 51.542 102.59 50.38 102.1 49.036L107.539 47.02C107.707 47.496 108.057 47.944 108.589 48.364C109.121 48.77 109.786 49.106 110.584 49.372C111.382 49.624 112.257 49.75 113.209 49.75C114.119 49.75 114.973 49.617 115.771 49.351C116.583 49.071 117.234 48.686 117.724 48.196C118.228 47.706 118.48 47.132 118.48 46.474C118.48 45.816 118.221 45.27 117.703 44.836C117.185 44.402 116.52 44.059 115.708 43.807C114.896 43.541 114.063 43.338 113.209 43.198C111.095 42.89 109.198 42.393 107.518 41.707C105.852 41.007 104.536 40.048 103.57 38.83C102.604 37.598 102.121 36.037 102.121 34.147C102.121 32.327 102.632 30.738 103.654 29.38C104.69 28.022 106.048 26.965 107.728 26.209C109.422 25.453 111.249 25.075 113.209 25.075C114.833 25.075 116.401 25.334 117.913 25.852C119.425 26.37 120.741 27.119 121.861 28.099C122.995 29.079 123.807 30.255 124.297 31.627L118.858 33.601C118.69 33.125 118.34 32.684 117.808 32.278C117.276 31.872 116.611 31.543 115.813 31.291C115.015 31.039 114.147 30.913 113.209 30.913C112.313 30.899 111.459 31.032 110.647 31.312C109.849 31.592 109.191 31.977 108.673 32.467C108.169 32.957 107.917 33.517 107.917 34.147C107.917 34.973 108.155 35.596 108.631 36.016C109.121 36.436 109.765 36.737 110.563 36.919C111.361 37.101 112.243 37.262 113.209 37.402C115.197 37.696 117.031 38.221 118.711 38.977C120.391 39.719 121.735 40.713 122.743 41.959C123.765 43.191 124.276 44.696 124.276 46.474C124.276 48.294 123.765 49.883 122.743 51.241C121.721 52.599 120.37 53.656 118.69 54.412C117.01 55.168 115.183 55.546 113.209 55.546ZM139.784 39.796H136.004V55H130.208V39.796H127.31V34H130.208V27.406H136.004V34H139.784V39.796ZM158.539 34H164.335V55H158.518L158.245 52.816C157.699 53.628 156.999 54.286 156.145 54.79C155.291 55.294 154.29 55.546 153.142 55.546C151.574 55.546 150.111 55.252 148.753 54.664C147.395 54.076 146.198 53.264 145.162 52.228C144.126 51.192 143.314 49.995 142.726 48.637C142.152 47.265 141.865 45.795 141.865 44.227C141.865 42.729 142.138 41.329 142.684 40.027C143.23 38.725 144 37.577 144.994 36.583C145.988 35.589 147.129 34.812 148.417 34.252C149.719 33.692 151.119 33.412 152.617 33.412C153.905 33.412 155.06 33.685 156.082 34.231C157.118 34.777 158.021 35.47 158.791 36.31L158.539 34ZM152.995 49.981C153.947 49.981 154.808 49.736 155.578 49.246C156.348 48.756 156.957 48.098 157.405 47.272C157.853 46.432 158.077 45.508 158.077 44.5C158.077 43.478 157.853 42.554 157.405 41.728C156.957 40.902 156.348 40.244 155.578 39.754C154.808 39.264 153.947 39.019 152.995 39.019C152.029 39.019 151.154 39.264 150.37 39.754C149.586 40.244 148.963 40.909 148.501 41.749C148.039 42.575 147.808 43.492 147.808 44.5C147.808 45.508 148.039 46.432 148.501 47.272C148.977 48.098 149.607 48.756 150.391 49.246C151.175 49.736 152.043 49.981 152.995 49.981ZM188.064 41.644V55H182.268V43.24C182.268 42.498 182.086 41.833 181.722 41.245C181.372 40.643 180.896 40.167 180.294 39.817C179.706 39.467 179.048 39.292 178.32 39.292C177.592 39.292 176.927 39.467 176.325 39.817C175.723 40.167 175.247 40.643 174.897 41.245C174.547 41.833 174.372 42.498 174.372 43.24V55H168.576L168.555 34H174.351L174.372 35.554C175.072 34.882 175.891 34.357 176.829 33.979C177.781 33.601 178.782 33.412 179.832 33.412C181.358 33.412 182.737 33.783 183.969 34.525C185.215 35.267 186.209 36.261 186.951 37.507C187.693 38.739 188.064 40.118 188.064 41.644ZM198.688 29.926V34H204.253V39.796H198.688V55H192.892V39.796H190.792V34H192.892V29.926C192.892 28.652 193.207 27.497 193.837 26.461C194.467 25.411 195.307 24.571 196.357 23.941C197.421 23.311 198.59 22.996 199.864 22.996C200.802 22.996 201.726 23.192 202.636 23.584C203.546 23.962 204.358 24.557 205.072 25.369L200.914 29.464C200.816 29.24 200.669 29.072 200.473 28.96C200.277 28.848 200.074 28.792 199.864 28.792C199.542 28.792 199.262 28.904 199.024 29.128C198.8 29.338 198.688 29.604 198.688 29.926ZM216.596 55.546C214.664 55.546 212.9 55.049 211.304 54.055C209.722 53.061 208.455 51.731 207.503 50.065C206.565 48.385 206.096 46.53 206.096 44.5C206.096 42.96 206.369 41.525 206.915 40.195C207.461 38.851 208.21 37.675 209.162 36.667C210.128 35.645 211.248 34.847 212.522 34.273C213.796 33.699 215.154 33.412 216.596 33.412C218.528 33.412 220.285 33.909 221.867 34.903C223.463 35.897 224.73 37.234 225.668 38.914C226.62 40.594 227.096 42.456 227.096 44.5C227.096 46.026 226.823 47.454 226.277 48.784C225.731 50.114 224.975 51.29 224.009 52.312C223.057 53.32 221.944 54.111 220.67 54.685C219.41 55.259 218.052 55.546 216.596 55.546ZM216.596 49.75C217.492 49.75 218.297 49.512 219.011 49.036C219.725 48.546 220.285 47.902 220.691 47.104C221.097 46.306 221.3 45.438 221.3 44.5C221.3 43.534 221.083 42.652 220.649 41.854C220.229 41.042 219.662 40.398 218.948 39.922C218.234 39.446 217.45 39.208 216.596 39.208C215.714 39.208 214.916 39.453 214.202 39.943C213.488 40.433 212.921 41.077 212.501 41.875C212.095 42.673 211.892 43.548 211.892 44.5C211.892 45.494 212.102 46.39 212.522 47.188C212.956 47.972 213.53 48.595 214.244 49.057C214.958 49.519 215.742 49.75 216.596 49.75ZM230.305 55L230.284 34H236.08L236.101 35.554C236.801 34.882 237.62 34.357 238.558 33.979C239.51 33.601 240.511 33.412 241.561 33.412C242.331 33.412 243.101 33.524 243.871 33.748L241.582 39.607C241.078 39.397 240.567 39.292 240.049 39.292C239.321 39.292 238.656 39.467 238.054 39.817C237.452 40.167 236.976 40.643 236.626 41.245C236.276 41.833 236.101 42.498 236.101 43.24V55H230.305ZM260.607 23.5H266.403V55H260.607V52.774C259.963 53.586 259.165 54.251 258.213 54.769C257.261 55.287 256.176 55.546 254.958 55.546C253.432 55.546 252.004 55.259 250.674 54.685C249.344 54.111 248.168 53.32 247.146 52.312C246.138 51.29 245.347 50.114 244.773 48.784C244.199 47.454 243.912 46.026 243.912 44.5C243.912 42.974 244.199 41.546 244.773 40.216C245.347 38.886 246.138 37.717 247.146 36.709C248.168 35.687 249.344 34.889 250.674 34.315C252.004 33.741 253.432 33.454 254.958 33.454C256.176 33.454 257.261 33.713 258.213 34.231C259.165 34.735 259.963 35.4 260.607 36.226V23.5ZM255.042 49.981C255.994 49.981 256.855 49.736 257.625 49.246C258.395 48.756 259.004 48.098 259.452 47.272C259.9 46.432 260.124 45.508 260.124 44.5C260.124 43.478 259.9 42.554 259.452 41.728C259.004 40.902 258.395 40.244 257.625 39.754C256.855 39.264 255.994 39.019 255.042 39.019C254.076 39.019 253.201 39.264 252.417 39.754C251.633 40.244 251.01 40.909 250.548 41.749C250.086 42.575 249.855 43.492 249.855 44.5C249.855 45.508 250.086 46.432 250.548 47.272C251.024 48.098 251.654 48.756 252.438 49.246C253.222 49.736 254.09 49.981 255.042 49.981ZM292.242 55.546C290.59 55.546 289.008 55.287 287.496 54.769C285.998 54.251 284.682 53.502 283.548 52.522C282.428 51.542 281.623 50.38 281.133 49.036L286.572 47.02C286.74 47.496 287.09 47.944 287.622 48.364C288.154 48.77 288.819 49.106 289.617 49.372C290.415 49.624 291.29 49.75 292.242 49.75C293.152 49.75 294.006 49.617 294.804 49.351C295.616 49.071 296.267 48.686 296.757 48.196C297.261 47.706 297.513 47.132 297.513 46.474C297.513 45.816 297.254 45.27 296.736 44.836C296.218 44.402 295.553 44.059 294.741 43.807C293.929 43.541 293.096 43.338 292.242 43.198C290.128 42.89 288.231 42.393 286.551 41.707C284.885 41.007 283.569 40.048 282.603 38.83C281.637 37.598 281.154 36.037 281.154 34.147C281.154 32.327 281.665 30.738 282.687 29.38C283.723 28.022 285.081 26.965 286.761 26.209C288.455 25.453 290.282 25.075 292.242 25.075C293.866 25.075 295.434 25.334 296.946 25.852C298.458 26.37 299.774 27.119 300.894 28.099C302.028 29.079 302.84 30.255 303.33 31.627L297.891 33.601C297.723 33.125 297.373 32.684 296.841 32.278C296.309 31.872 295.644 31.543 294.846 31.291C294.048 31.039 293.18 30.913 292.242 30.913C291.346 30.899 290.492 31.032 289.68 31.312C288.882 31.592 288.224 31.977 287.706 32.467C287.202 32.957 286.95 33.517 286.95 34.147C286.95 34.973 287.188 35.596 287.664 36.016C288.154 36.436 288.798 36.737 289.596 36.919C290.394 37.101 291.276 37.262 292.242 37.402C294.23 37.696 296.064 38.221 297.744 38.977C299.424 39.719 300.768 40.713 301.776 41.959C302.798 43.191 303.309 44.696 303.309 46.474C303.309 48.294 302.798 49.883 301.776 51.241C300.754 52.599 299.403 53.656 297.723 54.412C296.043 55.168 294.216 55.546 292.242 55.546ZM318.817 39.796H315.037V55H309.241V39.796H306.343V34H309.241V27.406H315.037V34H318.817V39.796ZM321.77 47.314V34H327.566V45.718C327.566 46.46 327.741 47.132 328.091 47.734C328.455 48.322 328.938 48.791 329.54 49.141C330.142 49.491 330.8 49.666 331.514 49.666C332.242 49.666 332.907 49.491 333.509 49.141C334.111 48.791 334.587 48.322 334.937 47.734C335.287 47.132 335.462 46.46 335.462 45.718V34H341.258L341.279 55H335.483L335.462 53.404C334.762 54.076 333.936 54.601 332.984 54.979C332.046 55.357 331.052 55.546 330.002 55.546C328.49 55.546 327.111 55.175 325.865 54.433C324.619 53.691 323.625 52.704 322.883 51.472C322.141 50.226 321.77 48.84 321.77 47.314ZM360.521 23.5H366.317V55H360.521V52.774C359.877 53.586 359.079 54.251 358.127 54.769C357.175 55.287 356.09 55.546 354.872 55.546C353.346 55.546 351.918 55.259 350.588 54.685C349.258 54.111 348.082 53.32 347.06 52.312C346.052 51.29 345.261 50.114 344.687 48.784C344.113 47.454 343.826 46.026 343.826 44.5C343.826 42.974 344.113 41.546 344.687 40.216C345.261 38.886 346.052 37.717 347.06 36.709C348.082 35.687 349.258 34.889 350.588 34.315C351.918 33.741 353.346 33.454 354.872 33.454C356.09 33.454 357.175 33.713 358.127 34.231C359.079 34.735 359.877 35.4 360.521 36.226V23.5ZM354.956 49.981C355.908 49.981 356.769 49.736 357.539 49.246C358.309 48.756 358.918 48.098 359.366 47.272C359.814 46.432 360.038 45.508 360.038 44.5C360.038 43.478 359.814 42.554 359.366 41.728C358.918 40.902 358.309 40.244 357.539 39.754C356.769 39.264 355.908 39.019 354.956 39.019C353.99 39.019 353.115 39.264 352.331 39.754C351.547 40.244 350.924 40.909 350.462 41.749C350 42.575 349.769 43.492 349.769 44.5C349.769 45.508 350 46.432 350.462 47.272C350.938 48.098 351.568 48.756 352.352 49.246C353.136 49.736 354.004 49.981 354.956 49.981ZM371.377 34H377.173V55H371.377V34ZM374.317 31.585C373.477 31.585 372.77 31.305 372.196 30.745C371.622 30.185 371.335 29.492 371.335 28.666C371.335 27.84 371.622 27.147 372.196 26.587C372.77 26.027 373.47 25.747 374.296 25.747C375.122 25.747 375.815 26.027 376.375 26.587C376.949 27.147 377.236 27.84 377.236 28.666C377.236 29.492 376.956 30.185 376.396 30.745C375.85 31.305 375.157 31.585 374.317 31.585ZM390.871 55.546C388.939 55.546 387.175 55.049 385.579 54.055C383.997 53.061 382.73 51.731 381.778 50.065C380.84 48.385 380.371 46.53 380.371 44.5C380.371 42.96 380.644 41.525 381.19 40.195C381.736 38.851 382.485 37.675 383.437 36.667C384.403 35.645 385.523 34.847 386.797 34.273C388.071 33.699 389.429 33.412 390.871 33.412C392.803 33.412 394.56 33.909 396.142 34.903C397.738 35.897 399.005 37.234 399.943 38.914C400.895 40.594 401.371 42.456 401.371 44.5C401.371 46.026 401.098 47.454 400.552 48.784C400.006 50.114 399.25 51.29 398.284 52.312C397.332 53.32 396.219 54.111 394.945 54.685C393.685 55.259 392.327 55.546 390.871 55.546ZM390.871 49.75C391.767 49.75 392.572 49.512 393.286 49.036C394 48.546 394.56 47.902 394.966 47.104C395.372 46.306 395.575 45.438 395.575 44.5C395.575 43.534 395.358 42.652 394.924 41.854C394.504 41.042 393.937 40.398 393.223 39.922C392.509 39.446 391.725 39.208 390.871 39.208C389.989 39.208 389.191 39.453 388.477 39.943C387.763 40.433 387.196 41.077 386.776 41.875C386.37 42.673 386.167 43.548 386.167 44.5C386.167 45.494 386.377 46.39 386.797 47.188C387.231 47.972 387.805 48.595 388.519 49.057C389.233 49.519 390.017 49.75 390.871 49.75Z" fill="#FF4A4E"/>
<path fill-rule="evenodd" clip-rule="evenodd" d="M80 40C80 62.0914 62.0914 80 40 80C17.9086 80 0 62.0914 0 40C0 17.9086 17.9086 0 40 0C62.0914 0 80 17.9086 80 40ZM46.6524 35C46.0234 35 45.5128 35.4978 45.5128 36.1111V51.6667L41.4034 59.6789C40.9829 60.4978 39.7852 60.4978 39.3647 59.6789L35.5709 52.2811C35.3783 51.9044 34.9829 51.6667 34.5521 51.6667H26.1396C25.5105 51.6667 25 52.1644 25 52.7778V57.8733C25 58.1678 25.1197 58.4511 25.3339 58.6589L31.5037 64.6744C31.7179 64.8833 32.0074 65 32.3094 65H48.4598C48.7618 65 49.0524 64.8833 49.2655 64.6744L55.4353 58.6589C55.6496 58.45 55.7692 58.1678 55.7692 57.8733V42.1267C55.7692 41.8322 55.6496 41.5489 55.4353 41.3411L49.2655 35.3256C49.0513 35.1167 48.7618 35 48.4598 35H46.6524ZM32.3094 15H48.4598C48.7618 15 49.0513 15.1167 49.2655 15.3256L55.4353 21.3411C55.6496 21.5489 55.7692 21.8322 55.7692 22.1267V27.2222C55.7692 27.8356 55.2587 28.3333 54.6296 28.3333H46.6524C46.0234 28.3333 45.5128 27.8356 45.5128 27.2222V25C45.5128 24.4156 45.4103 23.8544 45.2199 23.3333C44.5168 21.3911 42.6171 20 40.3846 20C38.1521 20 36.2524 21.3911 35.5493 23.3333C35.359 23.8544 35.2564 24.4156 35.2564 25V43.8889C35.2564 44.5022 34.7459 45 34.1168 45H32.3094C32.0074 45 31.7179 44.8833 31.5037 44.6744L25.3339 38.6589C25.1197 38.4511 25 38.1678 25 37.8733V22.1267C25 21.8322 25.1197 21.55 25.3339 21.3411L31.5037 15.3256C31.7168 15.1167 32.0074 15 32.3094 15Z" fill="#FF4A4E"/>
</svg>
