<svg width="36" height="60" viewBox="0 0 36 60" fill="none" xmlns="http://www.w3.org/2000/svg">
<g clip-path="url(#clip0_208_2)">
<path d="M25.3333 24C24.5973 24 24 24.5973 24 25.3333V44L19.192 53.6147C18.7 54.5973 17.2987 54.5973 16.8067 53.6147L12.368 44.7373C12.1427 44.2853 11.68 44 11.176 44H1.33333C0.597333 44 0 44.5973 0 45.3333V51.448C0 51.8013 0.14 52.1413 0.390667 52.3907L7.60933 59.6093C7.86 59.86 8.19867 60 8.552 60H27.448C27.8013 60 28.1413 59.86 28.3907 59.6093L35.6093 52.3907C35.86 52.14 36 51.8013 36 51.448V32.552C36 32.1987 35.86 31.8587 35.6093 31.6093L28.3907 24.3907C28.14 24.14 27.8013 24 27.448 24H25.3333Z" fill="#FF2A2F"/>
<path d="M27.448 0H8.552C8.19867 0 7.85867 0.14 7.60933 0.390667L0.390667 7.60933C0.14 7.86 0 8.19867 0 8.552V27.448C0 27.8013 0.14 28.1413 0.390667 28.3907L7.60933 35.6093C7.86 35.86 8.19867 36 8.552 36H10.6667C11.4027 36 12 35.4027 12 34.6667V12C12 11.2987 12.12 10.6253 12.3427 10C13.1653 7.66933 15.388 6 18 6C20.612 6 22.8347 7.66933 23.6573 10C23.88 10.6253 24 11.2987 24 12V14.6667C24 15.4027 24.5973 16 25.3333 16H34.6667C35.4027 16 36 15.4027 36 14.6667V8.552C36 8.19867 35.86 7.85867 35.6093 7.60933L28.3907 0.390667C28.14 0.14 27.8013 0 27.448 0Z" fill="#FF2A2F"/>
</g>
<defs>
<clipPath id="clip0_208_2">
<rect width="36" height="60" fill="white"/>
</clipPath>
</defs>
</svg>
